<?xml version="1.0" encoding="utf-8"?>
<!-- Generator: Adobe Illustrator 16.0.0, SVG Export Plug-In . SVG Version: 6.00 Build 0)  -->
<!DOCTYPE svg PUBLIC "-//W3C//DTD SVG 1.1//EN" "http://www.w3.org/Graphics/SVG/1.1/DTD/svg11.dtd">
<svg version="1.1" id="Layer_1" xmlns="http://www.w3.org/2000/svg" xmlns:xlink="http://www.w3.org/1999/xlink" x="0px" y="0px"
	 width="705.902px" height="233.438px" viewBox="0 0 705.902 233.438" enable-background="new 0 0 705.902 233.438"
	 xml:space="preserve">
<g>
	<path fill="#FFFFFF" d="M2.486,78.94V1.069h18.558c9.092,0,16.152,2.844,21.179,8.531c5.027,5.688,7.542,13.683,7.542,23.987v13.05
		c0,10.305-2.55,18.265-7.648,23.88c-5.099,5.616-12.497,8.423-22.195,8.423H2.486z M12.273,9.466v61.077h7.862
		c6.881,0,11.909-1.971,15.083-5.915c3.173-3.943,4.795-9.787,4.867-17.532v-13.81c0-8.208-1.578-14.23-4.733-18.066
		c-3.155-3.835-7.924-5.754-14.307-5.754H12.273z"/>
	<path fill="#FFFFFF" d="M70.841,78.94h-9.787V1.069h9.787V78.94z"/>
	<path fill="#FFFFFF" d="M132.351,69.26l-1.711,2.139c-4.92,5.741-12.123,8.611-21.607,8.611c-8.416,0-15.021-2.79-19.815-8.37
		c-4.796-5.58-7.247-13.469-7.354-23.666V32.678c0-10.91,2.184-19.084,6.552-24.521C92.782,2.719,99.316,0,108.017,0
		c7.416,0,13.218,2.059,17.408,6.177c4.189,4.118,6.499,10.01,6.926,17.676h-9.788c-0.393-4.848-1.738-8.637-4.038-11.365
		c-2.3-2.728-5.786-4.092-10.456-4.092c-5.598,0-9.699,1.828-12.301,5.482c-2.604,3.655-3.958,9.493-4.065,17.515v15.885
		c0,7.844,1.498,13.861,4.493,18.05c2.995,4.19,7.291,6.284,12.889,6.284c5.276,0,9.288-1.278,12.034-3.833l1.444-1.331V48.562
		h-14.226v-8.396h24.014V69.26z"/>
	<path fill="#FFFFFF" d="M154.176,78.94h-9.787V1.069h9.787V78.94z"/>
	<path fill="#FFFFFF" d="M210.926,9.466h-20.484V78.94h-9.788V9.466h-20.43V1.069h50.702V9.466z"/>
	<path fill="#FFFFFF" d="M250.132,58.563h-26.313l-6.043,20.377h-10.055l25.083-77.871h8.396l25.137,77.871h-10.055L250.132,58.563z
		 M226.386,50.167h21.232l-10.643-35.405L226.386,50.167z"/>
	<path fill="#FFFFFF" d="M282.387,70.543h30.539v8.397h-40.379V1.069h9.841V70.543z"/>
	<path fill="#FFFFFF" d="M378.236,42.947h-27.543v27.597h32.09v8.397h-41.877V1.069h41.342v8.397h-31.555V34.55h27.543V42.947z"/>
	<path fill="#FFFFFF" d="M412.792,30.913l14.654-29.844h11.498l-20.27,38.615l20.698,39.256h-11.606l-14.975-30.378L397.762,78.94
		h-11.605l20.805-39.256L386.584,1.069h11.445L412.792,30.913z"/>
	<path fill="#FFFFFF" d="M497.833,78.94h-9.841V42.947h-31.341V78.94h-9.788V1.069h9.788v33.48h31.341V1.069h9.841V78.94z"/>
	<path fill="#FFFFFF" d="M520.621,78.94h-9.788V1.069h9.788V78.94z"/>
	<path fill="#FFFFFF" d="M533.407,78.94V1.069h22.195c7.095,0,12.436,1.73,16.019,5.188c3.583,3.459,5.375,8.646,5.375,15.563
		c0,3.637-0.909,6.846-2.728,9.627s-4.279,4.939-7.381,6.471c3.565,1.07,6.392,3.263,8.478,6.579
		c2.085,3.316,3.128,7.31,3.128,11.98c0,6.989-1.917,12.48-5.749,16.473c-3.833,3.994-9.298,5.99-16.393,5.99H533.407z
		 M543.195,34.282h12.568c3.387,0,6.123-1.143,8.209-3.43c2.086-2.287,3.129-5.324,3.129-9.111c0-4.288-0.945-7.406-2.835-9.353
		c-1.89-1.947-4.778-2.921-8.664-2.921h-12.407V34.282z M543.195,42.519v28.025h13.37c3.708,0,6.649-1.221,8.825-3.664
		c2.174-2.441,3.262-5.874,3.262-10.295c0-9.377-3.957-14.066-11.873-14.066H543.195z"/>
	<path fill="#FFFFFF" d="M598.982,78.94h-9.788V1.069h9.788V78.94z"/>
	<path fill="#FFFFFF" d="M655.73,9.466h-20.483V78.94h-9.787V9.466h-20.431V1.069h50.701V9.466z"/>
	<path fill="#FFFFFF" d="M696.008,59.259c0-3.886-1.053-6.863-3.156-8.932c-2.104-2.067-5.901-4.082-11.392-6.043
		c-5.491-1.96-9.689-4.02-12.595-6.177c-2.906-2.157-5.081-4.617-6.525-7.381c-1.443-2.763-2.166-5.927-2.166-9.493
		c0-6.168,2.06-11.249,6.178-15.243C670.47,1.997,675.863,0,682.531,0c4.563,0,8.628,1.019,12.193,3.056
		c3.565,2.037,6.312,4.872,8.236,8.503c1.926,3.632,2.889,7.623,2.889,11.973h-9.841c0-4.813-1.159-8.539-3.477-11.178
		c-2.318-2.638-5.651-3.958-10.001-3.958c-3.958,0-7.025,1.107-9.199,3.322c-2.176,2.215-3.263,5.323-3.263,9.322
		c0,3.287,1.177,6.037,3.53,8.251c2.353,2.215,5.989,4.197,10.91,5.947c7.665,2.536,13.147,5.658,16.446,9.366
		c3.297,3.708,4.946,8.557,4.946,14.547c0,6.311-2.05,11.365-6.15,15.162c-4.101,3.797-9.68,5.696-16.74,5.696
		c-4.528,0-8.709-0.99-12.541-2.968c-3.833-1.979-6.846-4.76-9.039-8.344c-2.192-3.583-3.289-7.692-3.289-12.328h9.841
		c0,4.813,1.346,8.557,4.038,11.231c2.691,2.674,6.355,4.011,10.99,4.011c4.314,0,7.56-1.105,9.734-3.316
		C694.92,66.087,696.008,63.074,696.008,59.259z"/>
</g>
<g>
	<path fill="#FFFFFF" d="M13.455,189.56c-2.882-4.106-4.882-7.619-5.998-10.537c-1.117-2.918-1.675-5.746-1.675-8.483
		c0-5.584,1.405-9.97,4.215-13.158c2.81-3.188,6.556-4.782,11.239-4.782c4.215,0,7.673,1.45,10.375,4.35
		c2.702,2.9,4.053,6.602,4.053,11.104c0,5.224-2.377,10.195-7.133,14.914l-7.619,6.971l17.724,24.749
		c2.558-5.188,3.836-11.041,3.836-17.562h5.512c0,8.97-1.927,16.463-5.782,22.479l9.132,12.753h-7.241l-5.512-7.673
		c-2.377,2.738-5.116,4.882-8.213,6.43c-3.099,1.549-6.341,2.324-9.727,2.324c-6.268,0-11.276-1.927-15.022-5.782
		c-3.747-3.854-5.62-8.988-5.62-15.4c0-3.782,0.946-7.376,2.837-10.78C4.729,198.07,8.268,194.099,13.455,189.56z M20.642,227.817
		c5.476,0,10.339-2.607,14.59-7.822l-18.21-25.465l-0.54-0.647l-1.945,1.78c-5.728,5.611-8.592,11.132-8.592,16.562
		c0,4.712,1.332,8.488,3.999,11.33C12.608,226.397,16.175,227.817,20.642,227.817z M11.78,170.322c0,4.251,2.017,9.349,6.052,15.293
		l5.674-5.188c1.909-1.657,3.467-3.467,4.674-5.431c1.207-1.964,1.81-4.277,1.81-6.944c0-2.81-0.802-5.151-2.404-7.024
		c-1.604-1.873-3.738-2.81-6.403-2.81c-2.81,0-5.08,1.107-6.809,3.323C12.645,163.757,11.78,166.685,11.78,170.322z"/>
	<path fill="#FFFFFF" d="M141.283,207.824c-0.577,8.826-2.955,15.302-7.133,19.426c-4.18,4.125-9.961,6.188-17.346,6.188
		c-7.602,0-13.6-2.873-17.994-8.619c-4.396-5.746-6.611-13.554-6.646-23.425v-17.075c0-9.907,2.242-17.67,6.728-23.29
		c4.485-5.62,10.618-8.43,18.399-8.43c7.349,0,13.041,2.107,17.075,6.322c4.034,4.215,6.34,10.682,6.917,19.399h-6.269
		c-0.577-7.133-2.261-12.23-5.052-15.293c-2.792-3.062-7.016-4.593-12.671-4.593c-5.944,0-10.574,2.216-13.888,6.646
		c-3.314,4.431-4.971,10.861-4.971,19.291v16.859c0,8.357,1.603,14.86,4.809,19.507c3.206,4.647,7.728,6.971,13.563,6.971
		c6.124,0,10.555-1.53,13.293-4.593c2.737-3.062,4.377-8.159,4.917-15.292H141.283z"/>
	<path fill="#FFFFFF" d="M205.479,201.556c0,10.159-2.225,18.013-6.674,23.56c-4.449,5.549-10.69,8.322-18.724,8.322
		c-7.962,0-14.203-2.773-18.724-8.322c-4.521-5.547-6.8-13.347-6.835-23.397v-17.13c0-10.122,2.251-17.984,6.754-23.587
		c4.503-5.601,10.735-8.402,18.697-8.402c8.069,0,14.337,2.81,18.805,8.43c4.466,5.62,6.701,13.527,6.701,23.722V201.556z
		 M199.264,184.48c0-8.61-1.657-15.076-4.971-19.399c-3.315-4.323-8.088-6.484-14.32-6.484c-6.017,0-10.718,2.116-14.104,6.35
		c-3.387,4.233-5.116,10.563-5.188,18.993v17.616c0,8.646,1.71,15.14,5.133,19.48c3.422,4.341,8.177,6.511,14.266,6.511
		c6.269,0,11.032-2.161,14.293-6.484c3.26-4.322,4.89-10.825,4.89-19.507V184.48z"/>
	<path fill="#FFFFFF" d="M228.174,226.629h32.422v5.728H221.96V153.68h6.214V226.629z"/>
	<path fill="#FFFFFF" d="M279.508,226.629h32.422v5.728h-38.636V153.68h6.214V226.629z"/>
	<path fill="#FFFFFF" d="M361.319,194.693h-30.53v31.936h35.124v5.728h-41.284V153.68h41.013v5.836h-34.853v29.449h30.53V194.693z"
		/>
	<path fill="#FFFFFF" d="M426.812,207.824c-0.576,8.826-2.954,15.302-7.133,19.426c-4.179,4.125-9.961,6.188-17.346,6.188
		c-7.601,0-13.599-2.873-17.994-8.619s-6.61-13.554-6.646-23.425v-17.075c0-9.907,2.243-17.67,6.728-23.29
		c4.485-5.62,10.618-8.43,18.399-8.43c7.35,0,13.041,2.107,17.076,6.322c4.034,4.215,6.34,10.682,6.916,19.399h-6.268
		c-0.577-7.133-2.262-12.23-5.053-15.293c-2.792-3.062-7.017-4.593-12.672-4.593c-5.943,0-10.573,2.216-13.887,6.646
		c-3.315,4.431-4.972,10.861-4.972,19.291v16.859c0,8.357,1.603,14.86,4.81,19.507c3.206,4.647,7.727,6.971,13.562,6.971
		c6.124,0,10.556-1.53,13.293-4.593c2.737-3.062,4.377-8.159,4.918-15.292H426.812z"/>
	<path fill="#FFFFFF" d="M485.658,159.516h-22.371v72.841h-6.214v-72.841h-22.317v-5.836h50.902V159.516z"/>
	<path fill="#FFFFFF" d="M505.597,232.356h-6.16V153.68h6.16V232.356z"/>
	<path fill="#FFFFFF" d="M574.115,201.556c0,10.159-2.225,18.013-6.673,23.56c-4.45,5.549-10.691,8.322-18.724,8.322
		c-7.962,0-14.203-2.773-18.724-8.322c-4.521-5.547-6.801-13.347-6.836-23.397v-17.13c0-10.122,2.251-17.984,6.755-23.587
		c4.503-5.601,10.734-8.402,18.696-8.402c8.069,0,14.338,2.81,18.805,8.43s6.7,13.527,6.7,23.722V201.556z M567.901,184.48
		c0-8.61-1.657-15.076-4.972-19.399s-8.087-6.484-14.319-6.484c-6.017,0-10.718,2.116-14.104,6.35
		c-3.387,4.233-5.115,10.563-5.188,18.993v17.616c0,8.646,1.711,15.14,5.134,19.48c3.422,4.341,8.177,6.511,14.266,6.511
		c6.268,0,11.031-2.161,14.292-6.484c3.261-4.322,4.891-10.825,4.891-19.507V184.48z"/>
	<path fill="#FFFFFF" d="M640.094,232.356h-6.16l-37.123-67.005v67.005h-6.215V153.68h6.215l37.177,67.113V153.68h6.106V232.356z"/>
	<path fill="#FFFFFF" d="M695.751,213.012c0-4.396-1.252-7.854-3.755-10.375c-2.505-2.521-7.179-4.936-14.022-7.241
		c-6.845-2.305-11.87-4.881-15.076-7.728c-4.215-3.71-6.322-8.609-6.322-14.697c0-6.017,2.07-10.916,6.214-14.698
		c4.143-3.782,9.492-5.674,16.049-5.674c6.7,0,12.176,2.197,16.427,6.593s6.377,10.051,6.377,16.967h-6.215
		c0-5.295-1.485-9.572-4.458-12.833c-2.972-3.261-7.016-4.891-12.131-4.891c-4.972,0-8.889,1.343-11.753,4.025
		c-2.864,2.685-4.296,6.152-4.296,10.402c0,3.963,1.351,7.205,4.053,9.727s7.006,4.765,12.915,6.728
		c5.907,1.964,10.375,3.999,13.4,6.106c3.026,2.107,5.26,4.584,6.701,7.43c1.44,2.846,2.161,6.196,2.161,10.051
		c0,6.16-2.08,11.123-6.241,14.887c-4.161,3.766-9.664,5.647-16.508,5.647c-4.612,0-8.817-0.946-12.618-2.837
		c-3.801-1.892-6.772-4.611-8.916-8.16c-2.144-3.548-3.215-7.735-3.215-12.563h6.16c0,5.548,1.675,9.907,5.025,13.077
		c3.351,3.171,7.871,4.755,13.563,4.755c4.971,0,8.961-1.332,11.969-3.998S695.751,217.479,695.751,213.012z"/>
</g>
<rect x="3.413" y="95.708" fill="#FFFFFF" width="17.184" height="17.169"/>
<rect x="24.799" y="95.708" fill="#FFFFFF" width="17.184" height="17.169"/>
<rect x="46.186" y="95.708" fill="#FFFFFF" width="17.184" height="17.169"/>
<rect x="88.958" y="95.708" fill="#FFFFFF" width="17.184" height="17.169"/>
<rect x="110.347" y="95.708" fill="#FFFFFF" width="17.184" height="17.169"/>
<rect x="153.12" y="95.708" fill="#FFFFFF" width="17.186" height="17.169"/>
<rect x="217.282" y="95.708" fill="#FFFFFF" width="17.187" height="17.169"/>
<rect x="238.668" y="95.708" fill="#FFFFFF" width="17.184" height="17.169"/>
<rect x="302.83" y="95.708" fill="#FFFFFF" width="17.184" height="17.169"/>
<rect x="324.216" y="95.708" fill="#FFFFFF" width="17.184" height="17.169"/>
<rect x="366.989" y="95.708" fill="#FFFFFF" width="17.186" height="17.169"/>
<rect x="3.413" y="116.562" fill="#FFFFFF" width="17.184" height="17.171"/>
<rect x="67.572" y="116.562" fill="#FFFFFF" width="17.184" height="17.171"/>
<rect x="88.958" y="116.562" fill="#FFFFFF" width="17.184" height="17.171"/>
<rect x="153.12" y="116.562" fill="#FFFFFF" width="17.186" height="17.171"/>
<rect x="195.896" y="116.562" fill="#FFFFFF" width="17.184" height="17.171"/>
<rect x="217.282" y="116.562" fill="#FFFFFF" width="17.187" height="17.171"/>
<rect x="260.057" y="116.562" fill="#FFFFFF" width="17.184" height="17.171"/>
<rect x="281.443" y="116.562" fill="#FFFFFF" width="17.184" height="17.171"/>
<rect x="345.603" y="116.562" fill="#FFFFFF" width="17.184" height="17.171"/>
<rect x="410.111" y="95.708" fill="#FFFFFF" width="17.184" height="17.169"/>
<rect x="431.497" y="95.708" fill="#FFFFFF" width="17.185" height="17.169"/>
<rect x="474.274" y="95.708" fill="#FFFFFF" width="17.185" height="17.169"/>
<rect x="495.661" y="95.708" fill="#FFFFFF" width="17.184" height="17.169"/>
<rect x="538.433" y="95.708" fill="#FFFFFF" width="17.185" height="17.169"/>
<rect x="602.593" y="95.708" fill="#FFFFFF" width="17.184" height="17.169"/>
<rect x="623.984" y="95.708" fill="#FFFFFF" width="17.184" height="17.169"/>
<rect x="688.143" y="95.708" fill="#FFFFFF" width="17.184" height="17.169"/>
<rect x="388.724" y="116.562" fill="#FFFFFF" width="17.184" height="17.171"/>
<rect x="452.888" y="116.562" fill="#FFFFFF" width="17.184" height="17.171"/>
<rect x="474.274" y="116.562" fill="#FFFFFF" width="17.185" height="17.171"/>
<rect x="538.433" y="116.562" fill="#FFFFFF" width="17.185" height="17.171"/>
<rect x="581.207" y="116.562" fill="#FFFFFF" width="17.184" height="17.171"/>
<rect x="602.593" y="116.562" fill="#FFFFFF" width="17.184" height="17.171"/>
<rect x="645.371" y="116.562" fill="#FFFFFF" width="17.184" height="17.171"/>
<rect x="666.756" y="116.562" fill="#FFFFFF" width="17.185" height="17.171"/>
</svg>
